# AST/ASF file generated using VICON BodyLanguage
# -----------------------------------------------
:version 1.10
:name VICON
:units
  mass 1.0
  length 0.45
  angle deg
:documentation
   .ast/.asf automatically generated from VICON data using
   VICON BodyBuilder and BodyLanguage model FoxedUp or BRILLIANT.MOD
:root
   order TX TY TZ RX RY RZ
   axis XYZ
   position 0 0 0  
   orientation 0 0 0 
:bonedata
  begin
     id 1 
     name lhipjoint
     direction 0.606768 -0.715223 0.346827 
     length 2.41543 
     axis 0 0 0  XYZ
  end
  begin
     id 2 
     name lfemur
     direction 0.34202 -0.939693 0  
     length 7.2778  
     axis 0 0 20  XYZ
    dof rx ry rz
    limits (-160.0 20.0)
           (-70.0 70.0)
           (-60.0 70.0)
  end
  begin
     id 3 
     name ltibia
     direction 0.34202 -0.939693 0   
     length 7.61811   
     axis 0 0 20   XYZ
    dof rx
    limits (-10.0 170.0)
  end
  begin
     id 4 
     name lfoot
     direction 0.0823924 -0.226371 0.97055   
     length 2.33618   
     axis -90 7.62852e-016 20   XYZ
    dof rx rz
    limits (-45.0 90.0)
           (-70.0 20.0)
  end
  begin
     id 5 
     name ltoes
     direction 1.53554e-011 -4.21934e-011 1   
     length 1.17015   
     axis -90 7.62852e-016 20   XYZ
    dof rx
    limits (-90.0 20.0)
  end
  begin
     id 6 
     name rhipjoint
     direction -0.6077 -0.714582 0.346516   
     length 2.4176  
     axis 0 0 0  XYZ 
  end
  begin
     id 7 
     name rfemur
     direction -0.34202 -0.939693 0   
     length 7.28127   
     axis 0 0 -20   XYZ
    dof rx ry rz
    limits (-160.0 20.0)
           (-70.0 70.0)
           (-70.0 60.0)
  end
  begin
     id 8 
     name rtibia
     direction -0.34202 -0.939693 0   
     length 7.77648   
     axis 0 0 -20   XYZ
    dof rx
    limits (-10.0 170.0)
 end
 begin
     id 9 
     name rfoot
     direction -0.0809463 -0.222398 0.97159   
     length 2.37533  
     axis -90 -7.62852e-016 -20   XYZ
    dof rx rz
    limits (-45.0 90.0)
           (-20.0 70.0)
  end
  begin
     id 10 
     name rtoes
     direction -1.53568e-011 -4.21714e-011 1   
     length 1.18972   
     axis -90 -7.62852e-016 -20   XYZ
    dof rx
    limits (-90.0 20.0)
  end
  begin
     id 11 
     name lowerback
     direction 0.010968 0.991932 -0.126297   
     length 2.21698   
     axis 0 0 0   XYZ
    dof rx ry rz
    limits (-20.0 45.0)
           (-30.0 30.0)
           (-30.0 30.0)
  end
  begin
     id 12 
     name upperback
     direction 0.0167007 0.997503 -0.0686276   
     length 2.22371   
     axis 0 0 0   XYZ
    dof rx ry rz
    limits (-20.0 45.0)
           (-30.0 30.0)
           (-30.0 30.0)
  end
  begin
     id 13 
     name thorax
     direction 0.0111721 0.999885 -0.0102878   
     length 2.25242   
     axis 0 0 0   XYZ
    dof rx ry rz
    limits (-20.0 45.0)
           (-30.0 30.0)
           (-30.0 30.0)
  end
  begin
     id 14 
     name lowerneck
     direction -0.0120265 0.990428 0.137508   
     length 1.57674   
     axis 0 0 0   XYZ
    dof rx ry rz
    limits (-20.0 45.0)
           (-30.0 30.0)
           (-30.0 30.0)
  end
  begin
     id 15 
     name upperneck
     direction 0.0175669 0.998907 0.0433089   
     length 1.5618   
     axis 0 0 0   XYZ
    dof rx ry rz
    limits (-20.0 45.0)
           (-30.0 30.0)
           (-30.0 30.0)
  end
  begin
     id 16
     name head
     direction 0.00754609 0.99997 0.00185367  
     length 1.60579  
     axis 0 0 0   XYZ
    dof rx ry rz
    limits (-20.0 45.0)
           (-30.0 30.0)
           (-30.0 30.0)
  end
  begin
     id 17 
     name lclavicle
     direction 0.885866 0.429166 -0.176231  
     length 3.44967  
     axis 0 0 0   XYZ
    dof ry rz
    limits (-20.0 10.0)
           (0.0 20.0)
  end
  begin
     id 18 
     name lhumerus
     direction 1 -4.48973e-011 -1.90255e-027   
     length 5.20607   
     axis 180 -30 -90   XYZ
    dof rx ry rz
    limits (-60.0 90.0)
           (-90.0 90.0)
           (-90.0 90.0)
  end
  begin
     id 19
     name lradius
     direction 1 -4.48956e-011 9.87925e-027   
     length 3.39961   
     axis 180 -30 -90   XYZ
    dof rx
    limits (-10.0 170.0)
  end
  begin
     id 20
     name lwrist
     direction 1 -4.48985e-011 1.73247e-026   
     length 1.6998   
     axis -9.60847e-015 90 90   XYZ
    dof ry
    limits (-180.0 0.0)
 end
  begin
     id 21 
     name lhand
     direction 1 -4.48798e-011 3.46119e-026   
     length 0.519693   
     axis -2.21073e-014 90 90   XYZ
    dof rx rz
    limits (-90.0 90.0)
           (-45.0 45.0)
  end
  begin
     id 22 
     name lfingers
     direction 1 -4.48938e-011 6.92797e-026   
     length 0.41899   
     axis -4.42155e-014 90 90   XYZ
    dof rx
    limits (0.0 90.0)
  end
  begin
     id 23
     name lthumb
     direction 0.707107 -6.34952e-011 0.707107   
     length 0.601588   
     axis -90 45 6.0103e-014   XYZ
    dof rx rz
    limits (-45.0 45.0)
           (-45.0 45.0)
  end
  begin
     id 24 
     name rclavicle
     direction -0.866736 0.456792 -0.200276   
     length 3.45032  
     axis 0 0 0   XYZ 
    dof ry rz
    limits (-10.0 20.0)
           (-20.0 0.0)
  end
  begin
     id 25 
     name rhumerus
     direction -1 -4.4897e-011 8.65094e-028  
     length 5.32214   
     axis 180 30 90   XYZ
    dof rx ry rz
    limits (-90.0 60.0)
           (-90.0 90.0)
           (-90.0 90.0)
  end
  begin
     id 26 
     name rradius
     direction -1 -4.48987e-011 1.08427e-026   
     length 3.51208   
     axis 180 30 90   XYZ
    dof rx
    limits (-10.0 170.0)
  end
  begin
     id 27 
     name rwrist
     direction -1 -4.48961e-011 1.73222e-026   
     length 1.75604   
     axis -9.60847e-015 -90 -90   XYZ
    dof ry
    limits (-180.0 0.0)
  end
  begin
     id 28
     name rhand
     direction -1 -4.48895e-011 3.46314e-026   
     length 0.586681   
     axis -2.21073e-014 -90 -90   XYZ
    dof rx rz
    limits (-90.0 90.0)
           (-45.0 45.0)
  end
  begin
     id 29
     name rfingers
     direction -1 -4.48968e-011 6.92916e-026   
     length 0.472997   
     axis -4.42155e-014 -90 -90   XYZ
    dof rx
    limits (0.0 90.0)
  end
  begin
     id 30
     name rthumb
     direction -0.707107 -6.34848e-011 0.707107   
     length 0.679133   
     axis -90 -45 -6.0103e-014   XYZ
    dof rx rz
    limits (-45.0 45.0)
           (-45.0 45.0)
  end
:hierarchy
  begin
    root lhipjoint rhipjoint lowerback
    lhipjoint lfemur
    lfemur ltibia
    ltibia lfoot
    lfoot ltoes
    rhipjoint rfemur
    rfemur rtibia
    rtibia rfoot
    rfoot rtoes
    lowerback upperback
    upperback thorax
    thorax lowerneck lclavicle rclavicle
    lowerneck upperneck
    upperneck head
    lclavicle lhumerus
    lhumerus lradius
    lradius lwrist
    lwrist lhand lthumb
    lhand lfingers
    rclavicle rhumerus
    rhumerus rradius
    rradius rwrist
    rwrist rhand rthumb
    rhand rfingers
  end

#!OML:ASF H:\Dans Jumps\Project 1\Capture day 1\Session 1\subject.ASF
:FULLY-SPECIFIED
:DEGREES
1
root -0.0121963 17.3109 -14.5133 11.5411 -2.67418 -1.68876
lowerback 5.73626 -0.392841 -0.127413
upperback 6.5137 -0.566505 1.45068
thorax 3.52804 -0.327216 1.58299
lowerneck -14.7341 -0.466703 -2.1957
upperneck 30.4668 -1.0648 3.06649
head 12.5747 -0.335857 1.39247
rclavicle -6.06293e-015 9.74045e-015
rhumerus -21.7226 -13.0836 -78.7728
rradius 29.0377
rwrist 25.5031
rhand -19.8473 -25.9953
rfingers 7.12502
rthumb 6.48723 -55.8759
lclavicle -6.06293e-015 9.74045e-015
lhumerus -18.7316 2.6967 82.5525
lradius 23.112
lwrist 10.6437
lhand -29.2774 -6.35111
lfingers 7.12502
lthumb -2.61965 23.6125
rfemur -28.7195 -2.76473 19.6218
rtibia 33.8149
rfoot -15.4842 0.48808
rtoes 9.24334
lfemur -27.1873 9.2851 -19.2727
ltibia 32.2371
lfoot -14.3909 4.9346
ltoes 2.77167
2
root -0.00879507 17.3072 -14.5247 11.5922 -2.77583 -1.6895
lowerback 5.81547 -0.35774 -0.0999536
upperback 6.5207 -0.519139 1.46422
thorax 3.48968 -0.302761 1.58092
lowerneck -14.7619 -0.384672 -2.1729
upperneck 30.5879 -0.929785 2.98716
head 12.625 -0.283873 1.38008
rclavicle -3.77691e-015 -4.96962e-015
rhumerus -21.7678 -13.0505 -78.7786
rradius 29.0113
rwrist 25.4827
rhand -19.8222 -26.0334
rfingers 7.12502
rthumb 6.51142 -55.9133
lclavicle -3.77691e-015 -4.96962e-015
lhumerus -18.6688 2.79695 82.4659
lradius 22.9776
lwrist 10.5961
lhand -29.3811 -6.59683
lfingers 7.12502
lthumb -2.71979 23.3656
rfemur -28.8973 -2.71872 19.617
rtibia 33.9186
rfoot -15.4665 0.494413
rtoes 9.01842
lfemur -27.3379 9.31621 -19.3072
ltibia 32.3421
lfoot -14.3724 5.0345
ltoes 2.68141
3
root -0.00525537 17.3039 -14.5359 11.6297 -2.85543 -1.66822
lowerback 5.90815 -0.337786 -0.0874
upperback 6.53536 -0.492132 1.47273
thorax 3.45258 -0.288994 1.58256
lowerneck -14.7139 -0.306994 -2.19979
upperneck 30.6477 -0.791113 2.92249
head 12.6344 -0.234694 1.38133
rclavicle -2.23633e-015 7.85199e-015
rhumerus -21.8095 -12.94 -78.8008
rradius 29.0287
rwrist 25.4576
rhand -19.7977 -26.0686
rfingers 7.12502
rthumb 6.53516 -55.9478
lclavicle -2.23633e-015 7.85199e-015
lhumerus -18.6384 2.92246 82.3786
lradius 22.8821
lwrist 10.5441
lhand -29.2918 -6.20306
lfingers 7.12502
lthumb -2.63349 23.7604
rfemur -29.0611 -2.69485 19.5853
rtibia 34.0419
rfoot -15.4529 0.516471
rtoes 9.00119
lfemur -27.4603 9.32608 -19.3565
ltibia 32.4297
lfoot -14.3586 5.09848
ltoes 2.72259
4
root -0.00260373 17.3004 -14.5451 11.6655 -2.93597 -1.62173
lowerback 5.9633 -0.317202 -0.0927123
upperback 6.5529 -0.464694 1.46148
thorax 3.43936 -0.275341 1.57348
lowerneck -14.7548 -0.243052 -2.13758
upperneck 30.7381 -0.679166 2.80243
head 12.676 -0.193709 1.34256
rclavicle -1.94809e-014 1.55052e-014
rhumerus -21.8537 -12.9067 -78.8224
rradius 29.0021
rwrist 25.4578
rhand -19.8271 -25.9953
rfingers 7.12502
rthumb 6.50677 -55.8753
lclavicle -1.94809e-014 1.55052e-014
lhumerus -18.6645 2.9784 82.2905
lradius 22.8455
lwrist 10.5321
lhand -29.2314 -6.24274
lfingers 7.12502
lthumb -2.57521 23.7215
rfemur -29.2171 -2.68734 19.5304
rtibia 34.165
rfoot -15.4674 0.542731
rtoes 8.8941
lfemur -27.5771 9.33699 -19.4358
ltibia 32.5241
lfoot -14.354 5.17372
ltoes 2.65558
5
root -2.93028e-005 17.2965 -14.5554 11.7059 -3.01029 -1.59508
lowerback 6.03131 -0.297732 -0.0814706
upperback 6.56735 -0.43828 1.45903
thorax 3.41573 -0.261687 1.5643
lowerneck -14.7424 -0.177814 -2.11588
upperneck 30.7917 -0.564586 2.71633
head 12.6914 -0.152166 1.32352
rclavicle -6.95746e-016 -3.47873e-015
rhumerus -21.899 -12.8576 -78.8431
rradius 28.9829
rwrist 25.4546
rhand -19.8183 -25.9841
rfingers 7.12502
rthumb 6.51518 -55.8639
lclavicle -6.95746e-016 -3.47873e-015
lhumerus -18.6716 3.04445 82.2053
lradius 22.7761
lwrist 10.5107
lhand -29.2214 -6.26496
lfingers 7.12502
lthumb -2.5655 23.6994
rfemur -29.3843 -2.66378 19.4964
rtibia 34.2927
rfoot -15.4734 0.553585
rtoes 8.79538
lfemur -27.7092 9.34944 -19.4917
ltibia 32.6243
lfoot -14.3457 5.2432
ltoes 2.61599
6
root 0.00208728 17.2921 -14.5656 11.747 -3.07785 -1.57189
lowerback 6.09327 -0.280818 -0.0651337
upperback 6.58385 -0.4151 1.45447
thorax 3.39767 -0.249413 1.55008
lowerneck -14.725 -0.118104 -2.0946
upperneck 30.8267 -0.459103 2.63516
head 12.6986 -0.114048 1.30477
rclavicle -9.44227e-015 -5.06901e-015
rhumerus -21.9403 -12.8252 -78.8638
rradius 28.951
rwrist 25.47
rhand -19.8118 -25.9623
rfingers 7.12502
rthumb 6.52149 -55.8419
lclavicle -9.44227e-015 -5.06901e-015
lhumerus -18.6889 3.09575 82.1235
lradius 22.7133
lwrist 10.5013
lhand -29.2183 -6.28909
lfingers 7.12502
lthumb -2.56255 23.6753
rfemur -29.5534 -2.63651 19.4664
rtibia 34.4247
rfoot -15.4838 0.557015
rtoes 8.70156
lfemur -27.8483 9.36116 -19.542
ltibia 32.7345
lfoot -14.3436 5.30689
ltoes 2.58162
